<svg xmlns="http://www.w3.org/2000/svg" viewBox="0 0 24 24">
  <path d="M13 14h-2c-.552 0-1-.448-1-1v-2c0-.552.448-1 1-1h2c.552 0 1 .448 1 1v2C14 13.552 13.552 14 13 14zM13 7h-2c-.552 0-1-.448-1-1V4c0-.552.448-1 1-1h2c.552 0 1 .448 1 1v2C14 6.552 13.552 7 13 7zM13 21h-2c-.552 0-1-.448-1-1v-2c0-.552.448-1 1-1h2c.552 0 1 .448 1 1v2C14 20.552 13.552 21 13 21zM20 14h-2c-.552 0-1-.448-1-1v-2c0-.552.448-1 1-1h2c.552 0 1 .448 1 1v2C21 13.552 20.552 14 20 14zM20 7h-2c-.552 0-1-.448-1-1V4c0-.552.448-1 1-1h2c.552 0 1 .448 1 1v2C21 6.552 20.552 7 20 7zM20 21h-2c-.552 0-1-.448-1-1v-2c0-.552.448-1 1-1h2c.552 0 1 .448 1 1v2C21 20.552 20.552 21 20 21zM6 14H4c-.552 0-1-.448-1-1v-2c0-.552.448-1 1-1h2c.552 0 1 .448 1 1v2C7 13.552 6.552 14 6 14zM6 7H4C3.448 7 3 6.552 3 6V4c0-.552.448-1 1-1h2c.552 0 1 .448 1 1v2C7 6.552 6.552 7 6 7zM6 21H4c-.552 0-1-.448-1-1v-2c0-.552.448-1 1-1h2c.552 0 1 .448 1 1v2C7 20.552 6.552 21 6 21z" fill="#6F6F6F" />
</svg>